<?xml version="1.0" encoding="UTF-8" standalone="no"?>
<!-- Created with Inkscape (http://www.inkscape.org/) -->

<svg
   xmlns:dc="http://purl.org/dc/elements/1.1/"
   xmlns:cc="http://creativecommons.org/ns#"
   xmlns:rdf="http://www.w3.org/1999/02/22-rdf-syntax-ns#"
   xmlns:svg="http://www.w3.org/2000/svg"
   xmlns="http://www.w3.org/2000/svg"
   xmlns:sodipodi="http://sodipodi.sourceforge.net/DTD/sodipodi-0.dtd"
   xmlns:inkscape="http://www.inkscape.org/namespaces/inkscape"
   width="96"
   height="96"
   id="svg2"
   version="1.1"
   inkscape:version="0.48.2 r9819"
   sodipodi:docname="app_icon.svg">
  <defs
     id="defs4">
    <inkscape:path-effect
       effect="skeletal"
       id="path-effect3916"
       is_visible="true"
       pattern="M 0,5 C 0,2.24 2.24,0 5,0 7.76,0 10,2.24 10,5 10,7.76 7.76,10 5,10 2.24,10 0,7.76 0,5 z"
       copytype="single_stretched"
       prop_scale="1"
       scale_y_rel="false"
       spacing="0"
       normal_offset="0"
       tang_offset="0"
       prop_units="false"
       vertical_pattern="false"
       fuse_tolerance="0" />
  </defs>
  <sodipodi:namedview
     id="base"
     pagecolor="#ffffff"
     bordercolor="#666666"
     borderopacity="1.0"
     inkscape:pageopacity="0.0"
     inkscape:pageshadow="2"
     inkscape:zoom="6.09"
     inkscape:cx="48.528419"
     inkscape:cy="40"
     inkscape:document-units="px"
     inkscape:current-layer="layer1"
     showgrid="false"
     inkscape:window-width="1773"
     inkscape:window-height="1080"
     inkscape:window-x="26"
     inkscape:window-y="7"
     inkscape:window-maximized="0"
     inkscape:object-paths="true"
     inkscape:snap-intersection-paths="true" />
  <metadata
     id="metadata7">
    <rdf:RDF>
      <cc:Work
         rdf:about="">
        <dc:format>image/svg+xml</dc:format>
        <dc:type
           rdf:resource="http://purl.org/dc/dcmitype/StillImage" />
        <dc:title></dc:title>
      </cc:Work>
    </rdf:RDF>
  </metadata>
  <g
     inkscape:label="Layer 1"
     inkscape:groupmode="layer"
     id="layer1"
     transform="translate(0,-956.36218)">
    <rect
       style="fill:#00c6ff;fill-opacity:1;stroke:#000000;stroke-width:3.7;stroke-miterlimit:4;stroke-opacity:1;stroke-dasharray:none;stroke-linejoin:round"
       id="rect3896"
       width="96.059113"
       height="96.059113"
       x="0"
       y="-0.059113301"
       transform="translate(0,956.36218)" />
    <path
       sodipodi:type="arc"
       style="fill:#ffe900;fill-opacity:1;fill-rule:evenodd;stroke:#f4c900;stroke-width:1px;stroke-linecap:butt;stroke-linejoin:miter;stroke-opacity:1"
       id="path3010"
       sodipodi:cx="52.873562"
       sodipodi:cy="20.302135"
       sodipodi:rx="15.599343"
       sodipodi:ry="15.599343"
       d="m 68.472905,20.302135 a 15.599343,15.599343 0 1 1 -31.198686,0 15.599343,15.599343 0 1 1 31.198686,0 z"
       transform="translate(-18.55501,959.15364)" />
    <g
       id="g3890"
       transform="translate(23.809524,-35.796387)">
      <path
         transform="translate(0,956.36218)"
         d="m 30.377668,73.586205 c 0,5.395885 -4.484504,9.770114 -10.01642,9.770114 -5.531916,0 -10.01642,-4.374229 -10.01642,-9.770114 0,-5.395886 4.484504,-9.770115 10.01642,-9.770115 5.531916,0 10.01642,4.374229 10.01642,9.770115 z"
         sodipodi:ry="9.7701149"
         sodipodi:rx="10.01642"
         sodipodi:cy="73.586205"
         sodipodi:cx="20.361248"
         id="path3872"
         style="fill:#cccccc;fill-opacity:1;stroke:#a399ab;stroke-width:0.764;stroke-miterlimit:4;stroke-opacity:1;stroke-dasharray:none"
         sodipodi:type="arc" />
      <path
         transform="translate(0,956.36218)"
         d="m 49.917899,61.92775 c 0,7.118941 -5.697525,12.889983 -12.725779,12.889983 -7.028254,0 -12.72578,-5.771042 -12.72578,-12.889983 0,-7.118942 5.697526,-12.889984 12.72578,-12.889984 7.028254,0 12.725779,5.771042 12.725779,12.889984 z"
         sodipodi:ry="12.889983"
         sodipodi:rx="12.72578"
         sodipodi:cy="61.92775"
         sodipodi:cx="37.19212"
         id="path3874"
         style="fill:#cccccc;fill-opacity:1;stroke:#a399ab;stroke-width:0.764;stroke-miterlimit:4;stroke-opacity:1;stroke-dasharray:none"
         sodipodi:type="arc" />
      <path
         transform="translate(0,956.36218)"
         d="m 68.308702,73.175697 c 0,6.257414 -5.513734,11.330051 -12.315271,11.330051 -6.801536,0 -12.315271,-5.072637 -12.315271,-11.330051 0,-6.257414 5.513735,-11.33005 12.315271,-11.33005 6.801537,0 12.315271,5.072636 12.315271,11.33005 z"
         sodipodi:ry="11.33005"
         sodipodi:rx="12.315271"
         sodipodi:cy="73.175697"
         sodipodi:cx="55.993431"
         id="path3876"
         style="fill:#cccccc;fill-opacity:1;stroke:#a399ab;stroke-width:0.764;stroke-miterlimit:4;stroke-opacity:1;stroke-dasharray:none"
         sodipodi:type="arc" />
      <path
         transform="translate(0,956.36218)"
         d="m 53.037768,76.37767 c 0,6.937567 -7.020822,12.561576 -15.681445,12.561576 -8.660623,0 -15.681445,-5.624009 -15.681445,-12.561576 0,-6.937567 7.020822,-12.561576 15.681445,-12.561576 8.660623,0 15.681445,5.624009 15.681445,12.561576 z"
         sodipodi:ry="12.561576"
         sodipodi:rx="15.681445"
         sodipodi:cy="76.37767"
         sodipodi:cx="37.356323"
         id="path3888"
         style="fill:#cccccc;fill-opacity:1;stroke:#a399ab;stroke-width:0.764;stroke-miterlimit:4;stroke-opacity:1;stroke-dasharray:none"
         sodipodi:type="arc" />
    </g>
    <g
       id="g3908"
       transform="translate(-22.167488,34.811166)">
      <path
         transform="translate(-2.7914614,952.91391)"
         d="m 74.384233,38.77504 c 0,1.859086 -1.507088,3.366174 -3.366174,3.366174 -1.859087,0 -3.366174,-1.507088 -3.366174,-3.366174 0,-1.859087 1.507087,-3.366174 3.366174,-3.366174 1.859086,0 3.366174,1.507087 3.366174,3.366174 z"
         sodipodi:ry="3.366174"
         sodipodi:rx="3.366174"
         sodipodi:cy="38.77504"
         sodipodi:cx="71.018059"
         id="path3902"
         style="fill:#000000;fill-opacity:1;stroke:#000000;stroke-width:0;stroke-linejoin:round;stroke-miterlimit:4;stroke-opacity:1;stroke-dasharray:none"
         sodipodi:type="arc" />
      <path
         transform="translate(0,956.36218)"
         inkscape:connector-curvature="0"
         id="path3906"
         d="m 68.308703,35.737274 0,22.495895"
         style="fill:none;stroke:#000000;stroke-width:3.5999999;stroke-linecap:butt;stroke-linejoin:miter;stroke-miterlimit:4;stroke-opacity:1;stroke-dasharray:none" />
    </g>
    <path
       sodipodi:type="arc"
       style="fill:#000000;fill-opacity:0;stroke:#000000;stroke-width:1.29999995;stroke-linejoin:round;stroke-miterlimit:4;stroke-opacity:1;stroke-dasharray:none"
       id="path3925"
       sodipodi:cx="29.720854"
       sodipodi:cy="68.906403"
       sodipodi:rx="8.2101803"
       sodipodi:ry="8.5385876"
       d="m 21.510674,68.906402 a 8.2101803,8.5385876 0 0 1 16.42036,10e-7"
       transform="translate(16.420361,957.84002)"
       sodipodi:start="3.1415927"
       sodipodi:end="6.2831853"
       sodipodi:open="true" />
    <path
       sodipodi:type="arc"
       style="fill:#000000;fill-opacity:0;stroke:#000000;stroke-width:1.29999995;stroke-linejoin:round;stroke-miterlimit:4;stroke-opacity:1;stroke-dasharray:none"
       id="path3927"
       sodipodi:cx="45.320198"
       sodipodi:cy="55.934319"
       sodipodi:rx="14.285714"
       sodipodi:ry="14.285714"
       d="m 31.034484,55.934318 a 14.285714,14.285714 0 0 1 28.571428,0"
       transform="translate(0.65681445,970.8121)"
       sodipodi:start="3.1415927"
       sodipodi:end="6.2831853"
       sodipodi:open="true" />
    <path
       sodipodi:type="arc"
       style="fill:#000000;fill-opacity:0;stroke:#000000;stroke-width:1.29999995;stroke-linejoin:round;stroke-miterlimit:4;stroke-opacity:1;stroke-dasharray:none"
       id="path3929"
       sodipodi:cx="44.663383"
       sodipodi:cy="52.321838"
       sodipodi:rx="19.868637"
       sodipodi:ry="19.868637"
       d="m 24.794746,52.321837 a 19.868637,19.868637 0 0 1 39.737275,10e-7"
       transform="translate(1.1494253,974.75298)"
       sodipodi:start="3.1415927"
       sodipodi:end="6.2831853"
       sodipodi:open="true" />
  </g>
</svg>
