<?xml version="1.0" encoding="UTF-8" standalone="no"?>
<!-- Created with Inkscape (http://www.inkscape.org/) -->

<svg
   xmlns:dc="http://purl.org/dc/elements/1.1/"
   xmlns:cc="http://creativecommons.org/ns#"
   xmlns:rdf="http://www.w3.org/1999/02/22-rdf-syntax-ns#"
   xmlns:svg="http://www.w3.org/2000/svg"
   xmlns="http://www.w3.org/2000/svg"
   xmlns:sodipodi="http://sodipodi.sourceforge.net/DTD/sodipodi-0.dtd"
   xmlns:inkscape="http://www.inkscape.org/namespaces/inkscape"
   width="96"
   height="96"
   id="svg2"
   version="1.1"
   inkscape:version="0.48.2 r9819"
   sodipodi:docname="app_icon.svg">
  <defs
     id="defs4">
    <inkscape:path-effect
       effect="skeletal"
       id="path-effect3916"
       is_visible="true"
       pattern="M 0,5 C 0,2.24 2.24,0 5,0 7.76,0 10,2.24 10,5 10,7.76 7.76,10 5,10 2.24,10 0,7.76 0,5 z"
       copytype="single_stretched"
       prop_scale="1"
       scale_y_rel="false"
       spacing="0"
       normal_offset="0"
       tang_offset="0"
       prop_units="false"
       vertical_pattern="false"
       fuse_tolerance="0" />
  </defs>
  <sodipodi:namedview
     id="base"
     pagecolor="#ffffff"
     bordercolor="#666666"
     borderopacity="1.0"
     inkscape:pageopacity="0.0"
     inkscape:pageshadow="2"
     inkscape:zoom="6.09"
     inkscape:cx="19.46438"
     inkscape:cy="39.343186"
     inkscape:document-units="px"
     inkscape:current-layer="layer1"
     showgrid="false"
     inkscape:window-width="1773"
     inkscape:window-height="1080"
     inkscape:window-x="26"
     inkscape:window-y="7"
     inkscape:window-maximized="0"
     inkscape:object-paths="true"
     inkscape:snap-intersection-paths="true" />
  <metadata
     id="metadata7">
    <rdf:RDF>
      <cc:Work
         rdf:about="">
        <dc:format>image/svg+xml</dc:format>
        <dc:type
           rdf:resource="http://purl.org/dc/dcmitype/StillImage" />
        <dc:title />
      </cc:Work>
    </rdf:RDF>
  </metadata>
  <g
     inkscape:label="Layer 1"
     inkscape:groupmode="layer"
     id="layer1"
     transform="translate(0,-956.36218)">
    <rect
       style="fill:#00c6ff;fill-opacity:1;stroke:#3465a4;stroke-width:3.70000000000000018;stroke-miterlimit:4;stroke-opacity:1;stroke-dasharray:none;stroke-linejoin:round"
       id="rect3896"
       width="96.059113"
       height="96.059113"
       x="0"
       y="-0.059113301"
       transform="translate(0,956.36218)" />
    <path
       sodipodi:type="arc"
       style="fill:#ffe900;fill-opacity:1;fill-rule:evenodd;stroke:#f4c900;stroke-width:1px;stroke-linecap:butt;stroke-linejoin:miter;stroke-opacity:1"
       id="path3010"
       sodipodi:cx="52.873562"
       sodipodi:cy="20.302135"
       sodipodi:rx="15.599343"
       sodipodi:ry="15.599343"
       d="m 68.472905,20.302135 a 15.599343,15.599343 0 1 1 -31.198686,0 15.599343,15.599343 0 1 1 31.198686,0 z"
       transform="translate(-27.093598,958.49683)" />
    <g
       id="g3908"
       transform="translate(-22.167488,34.811166)">
      <path
         transform="translate(-2.7914614,952.91391)"
         d="m 74.384233,38.77504 c 0,1.859086 -1.507088,3.366174 -3.366174,3.366174 -1.859087,0 -3.366174,-1.507088 -3.366174,-3.366174 0,-1.859087 1.507087,-3.366174 3.366174,-3.366174 1.859086,0 3.366174,1.507087 3.366174,3.366174 z"
         sodipodi:ry="3.366174"
         sodipodi:rx="3.366174"
         sodipodi:cy="38.77504"
         sodipodi:cx="71.018059"
         id="path3902"
         style="fill:#000000;fill-opacity:1;stroke:#000000;stroke-width:0;stroke-linejoin:round;stroke-miterlimit:4;stroke-opacity:1;stroke-dasharray:none"
         sodipodi:type="arc" />
      <path
         transform="translate(0,956.36218)"
         inkscape:connector-curvature="0"
         id="path3906"
         d="m 68.308703,35.737274 0,22.495895"
         style="fill:none;stroke:#000000;stroke-width:3.5999999;stroke-linecap:butt;stroke-linejoin:miter;stroke-miterlimit:4;stroke-opacity:1;stroke-dasharray:none" />
    </g>
    <path
       sodipodi:type="arc"
       style="fill:#000000;fill-opacity:0;stroke:#000000;stroke-width:1.29999995;stroke-linejoin:round;stroke-miterlimit:4;stroke-opacity:1;stroke-dasharray:none"
       id="path3925"
       sodipodi:cx="29.720854"
       sodipodi:cy="68.906403"
       sodipodi:rx="8.2101803"
       sodipodi:ry="8.5385876"
       d="m 21.510674,68.906402 c 0,-4.715732 3.675823,-8.538587 8.21018,-8.538587 4.534357,0 8.21018,3.822856 8.21018,8.538588"
       transform="translate(16.420361,957.84002)"
       sodipodi:start="3.1415927"
       sodipodi:end="6.2831853"
       sodipodi:open="true" />
    <path
       sodipodi:type="arc"
       style="fill:#000000;fill-opacity:0;stroke:#000000;stroke-width:1.29999995;stroke-linejoin:round;stroke-miterlimit:4;stroke-opacity:1;stroke-dasharray:none"
       id="path3927"
       sodipodi:cx="45.320198"
       sodipodi:cy="55.934319"
       sodipodi:rx="14.285714"
       sodipodi:ry="14.285714"
       d="m 31.034484,55.934318 c 0,-7.889782 6.395933,-14.285714 14.285715,-14.285714 7.889781,1e-6 14.285713,6.395933 14.285713,14.285714"
       transform="translate(0.65681445,970.8121)"
       sodipodi:start="3.1415927"
       sodipodi:end="6.2831853"
       sodipodi:open="true" />
    <path
       sodipodi:type="arc"
       style="fill:#000000;fill-opacity:0;stroke:#000000;stroke-width:1.29999995;stroke-linejoin:round;stroke-miterlimit:4;stroke-opacity:1;stroke-dasharray:none"
       id="path3929"
       sodipodi:cx="44.663383"
       sodipodi:cy="52.321838"
       sodipodi:rx="19.868637"
       sodipodi:ry="19.868637"
       d="m 24.794746,52.321837 c 1e-6,-10.973145 8.895493,-19.868636 19.868638,-19.868636 10.973145,10e-7 19.868636,8.895492 19.868637,19.868637"
       transform="translate(1.1494253,974.75298)"
       sodipodi:start="3.1415927"
       sodipodi:end="6.2831853"
       sodipodi:open="true" />
    <g
       id="g4644"
       transform="translate(4.8579051,-1.0157181)">
      <path
         transform="translate(-16.337959,959.37955)"
         d="m 63.054186,34.341545 c 0,4.761075 -4.190438,8.620689 -9.359606,8.620689 -5.169167,0 -9.359606,-3.859614 -9.359606,-8.620689 0,-4.761075 4.190439,-8.620689 9.359606,-8.620689 5.169168,0 9.359606,3.859614 9.359606,8.620689 z"
         sodipodi:ry="8.6206894"
         sodipodi:rx="9.3596058"
         sodipodi:cy="34.341545"
         sodipodi:cx="53.69458"
         id="path4041"
         style="fill:#e6e6e6;fill-opacity:1;stroke:#cccccc;stroke-width:0.80000001;stroke-linejoin:round;stroke-miterlimit:4;stroke-opacity:1;stroke-dasharray:none"
         sodipodi:type="arc" />
      <path
         transform="translate(0,956.36218)"
         d="m 66.174058,27.434732 c 0,5.662281 -5.894845,10.252467 -13.166505,10.252467 -7.27166,0 -13.166505,-4.590186 -13.166505,-10.252467 0,-5.66228 5.894845,-10.252466 13.166505,-10.252466 7.27166,0 13.166505,4.590186 13.166505,10.252466 z"
         sodipodi:ry="10.252466"
         sodipodi:rx="13.166505"
         sodipodi:cy="27.434732"
         sodipodi:cx="53.007553"
         id="path4553"
         style="fill:#e6e6e6;fill-opacity:1;stroke:#cccccc;stroke-width:0.80000001;stroke-linejoin:round;stroke-miterlimit:4;stroke-opacity:1;stroke-dasharray:none"
         sodipodi:type="arc" />
      <path
         transform="translate(0,956.36218)"
         d="m 80.623975,36.640392 c 0,5.486573 -5.734284,9.934319 -12.807882,9.934319 -7.073597,0 -12.807881,-4.447746 -12.807881,-9.934319 0,-5.486572 5.734284,-9.934318 12.807881,-9.934318 7.073598,0 12.807882,4.447746 12.807882,9.934318 z"
         sodipodi:ry="9.9343185"
         sodipodi:rx="12.807881"
         sodipodi:cy="36.640392"
         sodipodi:cx="67.816093"
         id="path4557"
         style="fill:#e6e6e6;fill-opacity:1;stroke:#cccccc;stroke-width:0.80000001;stroke-linejoin:round;stroke-miterlimit:4;stroke-opacity:1;stroke-dasharray:none"
         sodipodi:type="arc" />
      <path
         transform="translate(0,956.36218)"
         d="m 60.755337,39.925087 c 0,4.851421 -4.483366,8.784274 -10.013878,8.784274 -5.530512,0 -10.013878,-3.932853 -10.013878,-8.784274 0,-4.851421 4.483366,-8.784274 10.013878,-8.784274 5.530512,0 10.013878,3.932853 10.013878,8.784274 z"
         sodipodi:ry="8.7842741"
         sodipodi:rx="10.013878"
         sodipodi:cy="39.925087"
         sodipodi:cx="50.741459"
         id="path4559"
         style="fill:#e6e6e6;fill-opacity:1;stroke:#cccccc;stroke-width:0.80000001;stroke-linejoin:round;stroke-miterlimit:4;stroke-opacity:1;stroke-dasharray:none"
         sodipodi:type="arc" />
    </g>
  </g>
</svg>
